<?xml version="1.0" standalone="no"?>
<!DOCTYPE svg PUBLIC "-//W3C//DTD SVG 20010904//EN"
 "http://www.w3.org/TR/2001/REC-SVG-20010904/DTD/svg10.dtd">
<svg version="1.0" xmlns="http://www.w3.org/2000/svg"
 width="1200.000000pt" height="1200.000000pt" viewBox="0 0 1200.000000 1200.000000"
 preserveAspectRatio="xMidYMid meet">

<g transform="translate(0.000000,1200.000000) scale(0.100000,-0.100000)"
fill="#000000" stroke="none">
<path d="M0 6000 l0 -6000 6000 0 6000 0 0 6000 0 6000 -6000 0 -6000 0 0
-6000z m6180 2294 c25 -3 69 -12 98 -19 28 -7 52 -11 52 -8 0 3 6 1 13 -4 6
-6 37 -18 67 -28 186 -60 420 -225 537 -379 26 -33 50 -63 53 -66 13 -12 61
-93 95 -161 91 -179 131 -361 128 -568 -9 -465 -270 -877 -685 -1079 -103 -50
-233 -94 -318 -107 -25 -4 -54 -9 -65 -12 -47 -10 -277 -3 -357 11 -594 106
-1018 609 -1018 1211 0 526 348 1001 848 1159 180 57 357 73 552 50z m-2800
-5324 l0 -550 130 0 130 0 0 -90 0 -90 -365 0 -365 0 0 90 0 90 130 0 130 0 0
460 0 460 -103 0 -102 0 -48 90 -48 90 255 0 256 0 0 -550z m4280 365 l0 -185
155 0 155 0 0 -90 0 -90 -155 0 -155 0 0 -251 c0 -152 4 -258 10 -270 27 -50
121 -63 216 -30 l55 20 -7 -60 c-14 -121 -14 -122 -74 -141 -68 -21 -191 -23
-256 -3 -60 18 -100 53 -128 114 -20 43 -21 65 -24 334 l-4 287 -94 0 -95 0 3
88 3 87 93 3 92 3 0 134 0 135 98 49 c53 28 100 50 105 50 4 1 7 -82 7 -184z
m2443 145 l77 0 0 -90 0 -89 -127 -3 -128 -3 -3 -432 -2 -433 130 0 130 0 0
-95 0 -95 -365 0 -365 0 0 95 0 95 130 0 130 0 0 435 0 435 -130 0 -130 0 0
90 0 89 133 4 c72 2 202 3 287 1 85 -2 190 -4 233 -4z m-7794 -62 c11 -35 101
-311 200 -614 100 -303 181 -554 181 -558 0 -3 -51 -6 -112 -6 l-113 0 -40
135 -39 135 -199 -2 -200 -3 -38 -129 c-22 -71 -41 -131 -43 -133 -2 -2 -53
-2 -114 -1 l-110 3 202 617 201 618 102 0 101 0 21 -62z m6540 0 c11 -35 101
-311 200 -614 100 -303 181 -554 181 -558 0 -3 -51 -6 -112 -6 l-113 0 -40
135 -39 135 -199 -2 -200 -3 -38 -129 c-22 -71 -41 -131 -43 -133 -2 -2 -53
-2 -114 -1 l-110 3 202 617 201 618 102 0 101 0 21 -62z m-3215 -278 c67 -26
144 -91 181 -155 37 -62 56 -162 53 -273 l-3 -97 -307 -3 c-237 -2 -308 -5
-308 -15 0 -29 50 -115 83 -144 80 -70 207 -70 305 0 l43 31 62 -63 62 -62
-35 -30 c-139 -120 -344 -144 -509 -60 -153 79 -239 281 -212 498 6 51 18 112
27 135 48 124 156 222 276 252 85 21 205 15 282 -14z m1090 0 c67 -26 144 -91
181 -155 37 -62 56 -162 53 -273 l-3 -97 -307 -3 c-237 -2 -308 -5 -308 -15 0
-29 50 -115 83 -144 80 -70 207 -70 305 0 l43 31 62 -63 62 -62 -35 -30 c-139
-120 -344 -144 -509 -60 -153 79 -239 281 -212 498 6 51 18 112 27 135 48 124
156 222 276 252 85 21 205 15 282 -14z m-1984 -67 l0 -78 -242 -285 -241 -285
241 -3 242 -2 0 -90 0 -90 -375 0 -375 0 0 75 0 74 108 128 c60 70 168 198
241 283 l132 155 -221 3 -220 2 0 95 0 95 355 0 355 0 0 -77z"/>
<path d="M2172 3143 c-7 -33 -37 -143 -67 -243 -30 -101 -55 -185 -55 -187 0
-2 61 -3 135 -3 83 0 135 4 135 10 0 5 -27 101 -59 212 -33 112 -63 218 -68
237 -8 34 -8 34 -21 -26z"/>
<path d="M8712 3143 c-7 -33 -37 -143 -67 -243 -30 -101 -55 -185 -55 -187 0
-2 61 -3 135 -3 83 0 135 4 135 10 0 5 -27 101 -59 212 -33 112 -63 218 -68
237 -8 34 -8 34 -21 -26z"/>
<path d="M5386 2975 c-64 -23 -112 -80 -131 -157 l-7 -28 211 0 c116 0 211 3
211 8 0 26 -26 92 -47 121 -48 63 -149 88 -237 56z"/>
<path d="M6476 2975 c-64 -23 -112 -80 -131 -157 l-7 -28 211 0 c116 0 211 3
211 8 0 26 -26 92 -47 121 -48 63 -149 88 -237 56z"/>
</g>
</svg>
