<?xml version="1.0" standalone="no"?>
<!DOCTYPE svg PUBLIC "-//W3C//DTD SVG 20010904//EN"
 "http://www.w3.org/TR/2001/REC-SVG-20010904/DTD/svg10.dtd">
<svg version="1.0" xmlns="http://www.w3.org/2000/svg"
 width="200.000000pt" height="200.000000pt" viewBox="0 0 200.000000 200.000000"
 preserveAspectRatio="xMidYMid meet">

<g transform="translate(0.000000,200.000000) scale(0.100000,-0.100000)"
fill="#000000" stroke="none">
<path d="M417 863 c-16 -16 -5 -32 26 -36 l32 -3 -33 -13 c-20 -8 -34 -22 -38
-37 -11 -43 1 -54 56 -54 43 0 50 3 50 19 0 15 -8 21 -32 23 l-33 3 30 15 c36
18 46 57 19 77 -19 14 -66 18 -77 6z"/>
<path d="M537 864 c-9 -9 -9 -67 -1 -88 4 -9 18 -16 34 -16 20 0 29 -6 33 -21
4 -13 12 -20 24 -17 15 3 18 14 18 73 0 63 -2 70 -20 70 -15 0 -21 -8 -23 -32
-4 -42 -20 -43 -24 -1 -3 31 -25 48 -41 32z"/>
<path d="M686 857 c-12 -9 -17 -23 -14 -42 3 -26 8 -30 36 -33 37 -4 44 -22 7
-22 -18 0 -25 -5 -25 -20 0 -16 7 -20 30 -20 42 0 70 31 70 79 0 23 -7 46 -16
55 -19 19 -64 21 -88 3z m54 -37 c0 -5 -7 -10 -15 -10 -8 0 -15 5 -15 10 0 6
7 10 15 10 8 0 15 -4 15 -10z"/>
<path d="M829 843 c-7 -16 -14 -49 -17 -75 -4 -44 -3 -48 17 -48 14 0 21 6 21
20 0 13 7 20 20 20 13 0 20 -7 20 -20 0 -13 7 -20 20 -20 17 0 20 7 20 40 0
22 -7 56 -14 75 -13 29 -20 35 -46 35 -24 0 -33 -6 -41 -27z m51 -33 c0 -11
-4 -20 -10 -20 -5 0 -10 9 -10 20 0 11 5 20 10 20 6 0 10 -9 10 -20z"/>
<path d="M960 795 l0 -75 55 0 55 0 0 40 c0 33 -3 40 -20 40 -13 0 -20 -7 -20
-20 0 -11 -7 -20 -15 -20 -12 0 -15 13 -15 55 0 48 -2 55 -20 55 -18 0 -20 -7
-20 -75z"/>
<path d="M1100 851 c0 -14 6 -21 20 -21 26 0 25 -6 -5 -42 -39 -46 -30 -62 33
-66 47 -3 52 -1 52 17 0 16 -6 21 -26 21 l-25 0 26 35 c38 49 31 69 -28 73
-42 3 -47 1 -47 -17z"/>
<path d="M1230 795 l0 -75 50 0 c43 0 50 3 50 20 0 16 -7 20 -30 20 -16 0 -30
5 -30 10 0 6 11 10 25 10 16 0 25 6 25 15 0 9 -9 15 -25 15 -14 0 -25 5 -25
10 0 6 14 10 30 10 23 0 30 4 30 20 0 17 -7 20 -50 20 l-50 0 0 -75z"/>
<path d="M1360 795 l0 -75 50 0 c43 0 50 3 50 20 0 16 -7 20 -30 20 -16 0 -30
5 -30 10 0 6 11 10 25 10 16 0 25 6 25 15 0 9 -9 15 -25 15 -14 0 -25 5 -25
10 0 6 14 10 30 10 23 0 30 4 30 20 0 17 -7 20 -50 20 l-50 0 0 -75z"/>
<path d="M1487 864 c-14 -14 -7 -34 13 -34 18 0 20 -7 20 -55 0 -48 2 -55 20
-55 18 0 20 7 20 55 0 49 2 55 21 55 14 0 19 5 17 18 -2 13 -15 18 -53 20 -28
2 -54 0 -58 -4z"/>
</g>
</svg>
